<?xml version="1.0" encoding="UTF-8"?>
<svg id="Camada_1" data-name="Camada 1" xmlns="http://www.w3.org/2000/svg" xmlns:xlink="http://www.w3.org/1999/xlink" viewBox="0 0 512.07 512.07">
  <defs>
    <style>
      .cls-1 {
        fill: url(#Gradiente_sem_nome_2);
        stroke-width: 0px;
      }

      .cls-2 {
        fill: #fff;
        stroke: #fff;
        stroke-miterlimit: 10;
      }
    </style>
    <linearGradient id="Gradiente_sem_nome_2" data-name="Gradiente sem nome 2" x1="240.57" y1="409.24" x2="242.43" y2="-38.82" gradientTransform="translate(0 514) scale(1 -1)" gradientUnits="userSpaceOnUse">
      <stop offset=".07" stop-color="#2c71b2"/>
      <stop offset=".08" stop-color="#2c71b2" stop-opacity=".99"/>
      <stop offset=".19" stop-color="#2c71b2" stop-opacity=".88"/>
      <stop offset=".3" stop-color="#2c71b2" stop-opacity=".82"/>
      <stop offset=".42" stop-color="#2c71b2" stop-opacity=".8"/>
      <stop offset=".5" stop-color="#2c71b2" stop-opacity=".69"/>
      <stop offset=".61" stop-color="#2c71b2" stop-opacity=".55"/>
      <stop offset=".69" stop-color="#2c71b2" stop-opacity=".5"/>
      <stop offset="1" stop-color="#2c71b2" stop-opacity=".2"/>
    </linearGradient>
  </defs>
  <rect class="cls-2" x=".07" y="0" width="512" height="512" rx="256" ry="256"/>
  <path class="cls-1" d="M32.89,326.51c.15-13.11,10.91-22.51,22.15-21.01,5.05.67,10.02,2.35,14.88,3.98,8,2.68,12.17,1.12,15.89-6.46,4.93-10.03,9.63-13.26,17.95-12.33,6.82.77,12.84,6.52,13.53,12.93.84,7.66-6.36,15.44-14.71,15.65-2.55.07-5.12-.48-7.67-.88-11.38-1.78-16.05.75-20.43,11.18-5.31,12.62-19.52,17.63-31.63,10.95-6.34-3.5-9.85-8.92-9.96-14h0ZM24.01,283.67c10.12,9.42,25.13,8.01,33.34-2.94,6.79-9.05,11.93-10.37,22.54-5.88,2.37,1,4.74,2.16,7.22,2.72,8.15,1.82,17.02-3.97,18.08-11.6.88-6.4-3.56-13.43-9.99-15.84-7.84-2.93-13.19-.93-20.4,7.6-5.46,6.45-9.88,6.95-16.99,2.41-4.32-2.76-8.73-5.59-13.47-7.47-10.54-4.18-23.26,2.32-26.59,15.01-1.13,4.95.95,11.07,6.25,16h0ZM24.29,222.21c6.97,11.94,21.74,14.93,32.77,6.82,9.11-6.7,14.42-6.48,23.28.88,1.98,1.65,3.91,3.44,6.13,4.69,7.28,4.1,17.45,1.12,20.66-5.89,2.69-5.87.47-13.89-4.99-18.04-6.66-5.07-12.35-4.7-21.73,1.38-7.09,4.6-11.47,3.8-16.96-2.6-3.34-3.89-6.74-7.88-10.73-11.04-8.88-7.04-22.94-4.49-29.79,6.68-2.51,4.42-2.29,10.87,1.36,17.13h0ZM40.25,164.94c3.52,13.36,17.14,19.48,30.17,13.77,10.76-4.72,15.89-3.37,22.52,5.84,1.48,2.06,2.87,4.25,4.7,5.97,5.99,5.63,16.76,4.83,21.83-1.45,4.25-5.26,4.3-13.71.1-19-5.12-6.46-10.78-7.31-21.63-3.26-8.2,3.06-12.26,1.34-15.87-6.2-2.19-4.58-4.42-9.27-7.45-13.27-6.74-8.9-21.19-9.36-30.98.3-3.68,3.86-5.24,10.32-3.4,17.32h0ZM74.95,116.42c.12,13.32,11.42,22.24,24.97,19.95,11.19-1.89,15.68.57,19.69,10.74.9,2.27,1.68,4.65,2.98,6.68,4.26,6.67,14.54,8.44,20.77,3.76,5.23-3.92,7.28-11.81,4.61-17.75-3.25-7.24-8.35-9.36-19.47-8.12-8.41.94-11.8-1.63-13.38-9.52-.96-4.8-1.93-9.7-3.82-14.15-4.2-9.9-17.62-13.72-29.07-6.99-4.36,2.74-7.35,8.43-7.29,15.4h0ZM122.68,73.35c-4.76,12.02,3.01,23.37,17.08,25.31,11.63,1.6,15.11,5.14,15.3,15.47.04,2.31-.06,4.68.46,6.89,1.72,7.26,11.11,11.89,18.91,9.52,6.55-1.99,11.44-8.48,11.01-14.61-.53-7.47-4.73-10.89-16.05-13.05-8.56-1.64-10.93-4.95-9.58-12.51.82-4.6,1.67-9.3,1.45-13.86-.47-10.15-12.18-17.54-25.84-14.86-5.26,1.18-10.27,5.41-12.77,11.7h0ZM182.03,44.44c-8.06,9.76-4.24,22.67,8.3,28.71,10.36,4.99,12.54,9.33,9.61,19.01-.65,2.16-1.47,4.34-1.65,6.56-.58,7.28,6.77,14.41,14.77,14.55,6.7.12,13.22-4.45,14.66-10.28,1.76-7.11-1.13-11.56-11.03-16.98-7.48-4.1-8.7-7.89-5.16-14.53,2.15-4.03,4.35-8.15,5.53-12.47,2.62-9.59-6.07-20-19.61-21.62-5.26-.48-11.21,1.95-15.43,7.05h0ZM242.34,28.7c-10.73,7.54-10.26,21.46.85,30.89,9.18,7.79,10.24,12.71,4.72,21.57-1.23,1.98-2.63,3.93-3.39,6.09-2.51,7.1,3.07,16.21,11.12,18.53,6.76,1.94,14.56-.85,17.56-6.28,3.66-6.62,1.9-11.84-6.69-19.93-6.5-6.12-6.73-10.23-1.4-15.9,3.24-3.44,6.56-6.95,8.89-10.93,5.18-8.85-.88-21.59-14.17-26.88-5.2-1.91-11.86-1.1-17.48,2.85h0ZM309.32,30.67c-12.27,3.91-16.58,17.02-9.74,29.02,5.65,9.92,4.93,14.81-3.07,21.47-1.79,1.49-3.71,2.9-5.14,4.69-4.68,5.89-2.75,15.99,3.76,20.48,5.45,3.77,13.45,3.43,18.01-.76,5.56-5.11,5.75-10.48.73-20.52-3.8-7.59-2.6-11.49,4.14-15.22,4.1-2.27,8.3-4.58,11.76-7.61,7.69-6.75,6.55-20.37-3.66-29.16-4.05-3.29-10.35-4.47-16.78-2.42h0ZM370.32,48.71c-13.1-.62-21,10.79-17.67,25.2,2.75,11.9.67,16.49-9.02,20.15-2.16.82-4.45,1.51-6.35,2.77-6.23,4.12-7.17,14.85-2.07,21.68,4.28,5.73,12.2,8.33,17.84,5.86,6.87-3.02,8.56-8.28,6.46-20.07-1.59-8.91.67-12.34,8.32-13.57,4.65-.74,9.4-1.49,13.64-3.23,9.42-3.87,12.12-17.8,4.59-30.24-3.04-4.75-8.88-8.22-15.74-8.55ZM425.22,84.94c-12.84-2.82-24.3,5.73-25.55,18.83-1.04,10.82-4.55,14.45-15.35,15.95-2.41.33-4.9.54-7.19,1.3-7.5,2.5-11.83,11.66-8.92,18.49,2.44,5.73,9.5,9.37,15.89,8.19,7.79-1.43,11.14-5.71,12.78-16.32,1.24-8.02,4.57-10.61,12.57-10.34,4.86.16,9.82.34,14.58-.44,10.59-1.73,17.69-13.36,14.13-25.49-1.53-4.65-6.22-8.69-12.95-10.17h0ZM358.75,145.09c-8.48-.22-15.24,6.22-15.09,14.22.13,6.61-1.87,9.19-8.73,11.32-1.53.48-3.12.88-4.54,1.6-4.65,2.36-6.77,8.34-4.39,12.11,1.99,3.15,6.81,4.53,10.84,3.09,4.91-1.75,6.76-4.7,7.04-11.25.21-4.95,2.17-6.89,7.34-7.64,3.14-.46,6.35-.92,9.37-1.93,6.7-2.25,10.42-10.03,7.24-16.9-1.32-2.62-4.65-4.49-9.09-4.61h0ZM324.08,127.16c-8.55,1.54-13.32,9.68-10.69,18.02,2.17,6.89.97,10-5.22,13.66-1.38.82-2.85,1.58-4.04,2.63-3.92,3.44-4.19,10.14-.65,13.58,2.97,2.88,8.21,3.32,11.8.97,4.37-2.86,5.31-6.33,3.56-13.24-1.32-5.23.04-7.66,4.98-9.53,3-1.14,6.07-2.29,8.77-3.98,6.01-3.75,7.32-12.67,2.01-19.2-2.13-2.46-6.04-3.74-10.52-2.93h0ZM289.11,119.48c-7.76,3.91-10.01,13.08-5.11,20.32,4.04,5.99,3.78,9.31-1.11,14.59-1.09,1.18-2.28,2.32-3.13,3.67-2.78,4.41-1.12,10.91,3.25,13.21,3.67,1.92,8.81.84,11.58-2.43,3.38-3.99,3.29-7.57-.36-13.7-2.75-4.63-2.14-7.35,2.06-10.55,2.55-1.95,5.17-3.92,7.28-6.31,4.69-5.3,3.4-14.23-3.54-18.97-2.75-1.75-6.86-1.86-10.91.19h0ZM251.18,118.82c-6.53,5.73-6.42,15.16.12,20.95,5.41,4.79,5.98,8.07,2.56,14.4-.76,1.41-1.63,2.82-2.11,4.33-1.59,4.97,1.64,10.85,6.44,11.98,4.03.94,8.75-1.39,10.61-5.24,2.27-4.7,1.29-8.15-3.77-13.18-3.82-3.8-3.91-6.58-.64-10.73,1.99-2.52,4.02-5.09,5.47-7.93,3.22-6.31-.26-14.63-8.17-17.49-3.1-1.01-7.1-.09-10.52,2.91h0ZM214.49,128.13c-4.32,7.54-1.15,16.42,6.92,19.78,6.67,2.77,8.28,5.69,7.1,12.79-.26,1.58-.62,3.19-.59,4.78.11,5.21,5.07,9.73,9.98,9.23,4.12-.42,7.82-4.15,8.33-8.41.63-5.19-1.43-8.13-7.84-11.24-4.85-2.35-5.84-4.96-4.09-9.94,1.06-3.03,2.15-6.12,2.6-9.27.99-7.01-5-13.76-13.4-13.89-3.26.05-6.75,2.22-9.01,6.17h0ZM180.63,146.09c-1.74,8.51,4.06,15.96,12.78,16.61,7.2.54,9.65,2.8,10.76,9.91.25,1.59.41,3.23.94,4.73,1.74,4.92,7.87,7.65,12.37,5.63,3.78-1.69,6.12-6.4,5.27-10.6-1.03-5.12-3.91-7.27-10.98-8.21-5.34-.71-7.1-2.87-7-8.15.05-3.21.12-6.49-.45-9.62-1.26-6.97-9.06-11.49-17.08-8.98-3.08,1.07-5.71,4.23-6.62,8.68h0ZM154.37,169.42c.6,8.8,8.22,14.66,16.85,13.1,7.13-1.29,10.11.33,13.09,7.03.67,1.5,1.26,3.07,2.18,4.41,3.01,4.4,9.68,5.53,13.51,2.42,3.21-2.61,4.22-7.83,2.27-11.75-2.38-4.77-5.74-6.16-12.85-5.3-5.37.65-7.65-1.03-8.98-6.25-.81-3.17-1.63-6.41-3.01-9.34-3.09-6.53-11.87-9.01-18.98-4.52-2.69,1.83-4.4,5.59-4.09,10.2h0ZM133.67,197.55c2.74,8.29,11.4,12.31,19.2,9.03,6.44-2.71,9.67-1.78,14.15,4.01,1,1.3,1.95,2.67,3.15,3.76,3.93,3.58,10.55,3.28,13.41-.49,2.4-3.16,2.08-8.36-.74-11.69-3.43-4.07-6.96-4.7-13.49-2.41-4.93,1.73-7.51.59-10.06-4.11-1.54-2.86-3.12-5.79-5.16-8.31-4.54-5.6-13.47-6.15-19.11-.39-2.11,2.31-2.8,6.26-1.36,10.6h0ZM383.14,332.14c2.2-7.24-3.24-14.66-10.91-16.2-3.45-.69-7.01-.81-10.5-.93-5.74-.2-8.21-1.93-9.33-6.88-1.49-6.55-4.02-9.31-9.66-10.54-4.63-1.01-9.59.89-11.18,4.27-1.89,4.03,1.49,9.82,6.95,11.69,1.67.57,3.46.81,5.2,1.12,7.8,1.41,10.44,3.78,11.5,10.43,1.29,8.05,9.77,13.78,18.91,12.65,4.79-.59,8.05-2.84,9.01-5.61h0ZM358.87,352.97c3.24-7.75-.93-16.12-8.15-18.19-3.25-.93-6.7-1.25-10.08-1.57-5.56-.53-7.7-2.54-8.04-7.98-.45-7.2-2.5-10.34-7.8-11.98-4.35-1.34-9.47.46-11.53,4.05-2.45,4.29-.05,10.76,4.99,13.08,1.54.71,3.24,1.06,4.9,1.5,7.38,1.95,9.59,4.67,9.61,11.96.03,8.82,7.42,15.51,16.49,14.77,4.75-.39,8.27-2.66,9.63-5.62h0ZM324.57,372.03c5.47-6.37,4.29-15.44-1.74-19.46-2.71-1.81-5.8-3.1-8.83-4.36-4.98-2.08-6.32-4.59-4.9-9.81,1.88-6.91.99-10.45-3.4-13.51-3.6-2.51-8.92-2.28-11.97.52-3.64,3.33-3.48,10.12.44,13.74,1.2,1.11,2.67,1.93,4.06,2.81,6.22,3.94,7.38,7.13,5.08,14-2.79,8.32,1.91,16.73,10.55,18.62,4.53.99,8.51-.14,10.7-2.54h0ZM287.78,381.13c7.15-4.86,8.52-14.01,3.73-19.43-2.15-2.44-4.82-4.46-7.43-6.45-4.3-3.27-4.91-6.05-2.06-10.8,3.77-6.28,3.89-9.95.44-14.03-2.82-3.34-8.11-4.44-11.88-2.47-4.5,2.35-6.23,9.01-3.4,13.52.86,1.37,2.08,2.54,3.19,3.75,4.99,5.39,5.25,8.8,1.07,14.93-5.06,7.42-2.8,16.8,5.14,20.79,4.16,2.09,8.38,1.97,11.21.18h0ZM248.19,382.01c8.14-2.1,12.32-10.3,9.66-17.13-1.2-3.07-3.01-5.93-4.78-8.74-2.91-4.61-2.58-7.47,1.56-10.97,5.48-4.63,6.76-8.08,4.9-13.16-1.53-4.17-6.04-7.06-10.14-6.52-4.89.65-8.63,6.36-7.46,11.64.35,1.61,1.09,3.14,1.74,4.68,2.87,6.87,2.01,10.2-3.8,14.55-7.03,5.27-7.96,14.96-1.92,21.55,3.16,3.45,7.08,4.82,10.25,4.11h0ZM210.52,373.09c8.73-.18,14.92-7.14,13.85-14.34-.48-3.24-1.63-6.41-2.74-9.52-1.84-5.11-.82-7.79,4.2-10.23,6.65-3.23,8.77-6.26,8.09-11.59-.55-4.37-4.42-8.19-8.69-8.6-5.1-.49-10.24,4.18-10.32,9.54-.03,1.63.35,3.28.64,4.91,1.26,7.29-.4,10.3-7.32,13.18-8.37,3.48-11.62,12.64-7.09,20.36,2.37,4.04,6,6.26,9.39,6.3h0ZM176.5,355.73c8.43,2.48,16.46-2.21,17.58-9.33.51-3.2.35-6.54.21-9.81-.24-5.38,1.54-7.6,7.09-8.38,7.35-1.03,10.29-3.25,11.23-8.48.77-4.29-1.79-9.07-5.78-10.75-4.75-2.01-11.08.84-12.76,5.87-.51,1.53-.64,3.21-.86,4.83-.97,7.26-3.46,9.59-10.96,10.21-9.08.75-14.93,8.4-12.89,17.06,1.07,4.54,3.89,7.73,7.13,8.79h0ZM147.44,330.22c7,4.79,16.03,2.51,19.46-4.08,1.54-2.96,2.52-6.24,3.48-9.46,1.58-5.29,3.98-6.94,9.4-6.12,7.17,1.08,10.65-.24,13.28-5.05,2.16-3.94,1.37-9.3-1.77-12.06-3.74-3.29-10.57-2.32-13.82,2.08-.99,1.34-1.67,2.93-2.41,4.44-3.33,6.77-6.43,8.33-13.61,6.81-8.68-1.84-16.68,3.92-17.69,12.9-.53,4.7,1.03,8.59,3.68,10.54h0ZM128.04,298.31c5.68,6.41,15.08,6.4,20.05.8,2.24-2.52,4-5.49,5.74-8.4,2.85-4.78,5.6-5.81,10.7-3.68,6.75,2.82,10.48,2.38,14.24-1.67,3.08-3.33,3.63-8.77,1.24-12.24-2.86-4.14-9.78-4.88-14.04-1.36-1.3,1.07-2.35,2.46-3.45,3.75-4.92,5.8-8.34,6.57-14.99,3.31-8.05-3.94-17.3-.27-20.49,8.27-1.67,4.47-1.11,8.67,1.01,11.22h0ZM117.89,261.87c3.88,7.96,13.02,10.65,19.3,6.56,2.82-1.84,5.31-4.27,7.74-6.64,4-3.9,6.94-4.13,11.36-.55,5.85,4.73,9.59,5.36,14.28,2.44,3.85-2.4,5.78-7.6,4.35-11.72-1.71-4.91-8.26-7.62-13.31-5.38-1.54.68-2.92,1.75-4.32,2.71-6.28,4.31-9.8,4.08-15.44-1.04-6.82-6.2-16.76-5.23-22.06,2.27-2.78,3.93-3.3,8.23-1.9,11.36h0ZM119.27,224.97c1.72,8.68,9.87,13.62,16.99,11.26,3.2-1.06,6.22-2.77,9.18-4.44,4.87-2.75,7.77-2.22,11.13,2.36,4.45,6.06,7.9,7.64,13.19,6.01,4.34-1.33,7.53-5.88,7.19-10.22-.41-5.18-6.04-9.47-11.5-8.6-1.66.26-3.27.94-4.87,1.52-7.17,2.56-10.52,1.44-14.66-4.95-5.01-7.74-14.87-9.34-21.91-3.44-3.69,3.09-5.3,7.12-4.74,10.5h0ZM73.17,391.64c13.12,6.73,27.39,2.31,31.03-8.24,1.64-4.74,2.24-9.93,2.84-15.01.98-8.35,4.44-11.15,13.69-10.43,12.24.97,17.6-1.43,20.47-9.14,2.35-6.33-.62-14.56-6.69-18.53-7.24-4.74-18.27-2.55-22.3,4.59-1.23,2.18-1.86,4.7-2.62,7.12-3.43,10.82-8.09,13.55-20.46,11.9-14.99-2-26.47,7.73-25.35,21.75.58,7.34,4.38,13.23,9.39,15.98h0ZM119.05,432.98c13.47,3.29,25.67-4.31,26.81-15.2.52-4.9-.02-9.97-.54-14.94-.85-8.17,1.75-11.66,10.41-13.16,11.46-1.99,15.88-5.54,16.9-13.55.84-6.57-3.62-13.69-10.03-16.02-7.65-2.78-17.34,1.91-19.54,9.66-.67,2.36-.72,4.91-.92,7.39-.88,11.1-4.59,14.8-16.32,16.17-14.2,1.66-22.72,13.63-18.75,26.69,2.08,6.84,6.8,11.53,11.98,12.96h0ZM175.27,460.3c13.41.1,23.21-10.11,21.88-20.98-.6-4.89-2.22-9.71-3.8-14.43-2.6-7.77-.93-11.76,6.89-15.22,10.34-4.57,13.73-9.05,12.92-17.09-.66-6.59-6.43-12.51-12.99-13.3-7.81-.95-15.89,5.85-16.25,13.91-.11,2.46.41,4.96.77,7.42,1.62,11.01-1.06,15.47-11.79,19.51-13,4.89-18.37,18.51-11.75,30.32,3.46,6.19,8.95,9.67,14.14,9.87h0ZM239.6,473.73c13.17-4.16,19.7-16.7,15.12-26.32-2.06-4.33-5.1-8.27-8.08-12.13-4.89-6.35-4.46-10.57,2.16-16.24,8.76-7.5,10.73-12.71,7.51-19.89-2.64-5.88-10.07-9.52-16.73-8.18-7.94,1.6-13.81,10.45-11.74,18.01.63,2.31,1.89,4.45,2.99,6.61,4.91,9.66,3.63,14.63-5.68,21.77-11.26,8.64-12.43,22.93-2.39,31.74,5.26,4.62,11.68,6.1,16.83,4.63h0ZM305.54,471.6c11.32-7.72,13.87-21.58,6.7-29.5-3.22-3.56-7.26-6.47-11.22-9.33-6.51-4.7-7.32-8.86-2.68-16.17,6.14-9.67,6.5-15.22,1.35-21.18-4.22-4.89-12.36-6.26-18.3-3.08-7.09,3.79-10.09,13.92-5.92,20.58,1.27,2.03,3.1,3.73,4.77,5.48,7.48,7.86,7.72,12.99.95,22.46-8.2,11.47-5.13,25.49,6.99,31.08,6.35,2.93,12.89,2.53,17.36-.34h0ZM369.21,453c8.46-11.06,6.68-25.12-2.58-30.35-4.17-2.35-8.92-3.81-13.57-5.24-7.65-2.36-9.7-6.07-7.49-14.56,2.92-11.23,1.57-16.65-5.17-20.66-5.53-3.29-13.72-1.95-18.44,3.02-5.63,5.92-5.41,16.58.62,21.57,1.84,1.52,4.1,2.55,6.23,3.68,9.55,5.07,11.34,9.88,7.75,21.13-4.34,13.62,2.86,26,16.16,27.39,6.96.73,13.1-1.79,16.5-5.98h0ZM421.71,422.77c4.96-12.25-.56-24.82-10.71-27.43-4.57-1.17-9.44-1.38-14.22-1.59-7.86-.35-10.8-3.28-11.03-11.66-.31-11.09-3.06-15.76-10.51-17.85-6.11-1.71-13.46,1.5-16.55,7.22-3.68,6.83-.57,16.62,6.46,19.79,2.14.97,4.55,1.37,6.87,1.9,10.39,2.38,13.38,6.41,13.07,17.67-.38,13.63,9.79,23.34,22.7,21.43,6.76-1,11.86-4.8,13.92-9.49h0ZM464.89,386.78c2.97-12.21-4.91-23.51-15.82-24.82-4.9-.59-9.96-.22-14.91.13-8.15.57-11.69-1.87-13.4-9.81-2.25-10.5-5.9-14.62-13.93-15.74-6.58-.92-13.59,2.97-15.77,8.77-2.6,6.91,2.32,15.86,10.11,18.05,2.38.67,4.93.78,7.41,1.02,11.11,1.07,14.89,4.55,16.54,15.28,2,12.99,14.16,21.04,27.11,17.75,6.78-1.73,11.36-5.93,12.67-10.62h0Z"/>
</svg>